<?xml version="1.0" encoding="UTF-8"?>
<svg id="Layer_1" data-name="Layer 1" xmlns="http://www.w3.org/2000/svg" viewBox="0 0 112.12 84.29">
  <defs>
    <style>
      .cls-1, .cls-2 {
        fill: #8dc23d;
      }

      .cls-3 {
        letter-spacing: -.04em;
      }

      .cls-2 {
        font-family: BellMTItalic, 'Bell MT';
        font-size: 10.63px;
      }

      .cls-4 {
        letter-spacing: 0em;
      }

      .cls-5 {
        letter-spacing: -.02em;
      }

      .cls-6 {
        fill: #fad119;
      }

      .cls-7 {
        letter-spacing: -.11em;
      }

      .cls-8 {
        fill: #ed1c24;
        font-family: CalisMTBol, 'Calisto MT';
        font-size: 15.94px;
      }
    </style>
  </defs>
  <path class="cls-1" d="M68.59,11.15l-8.63-4.75C39.31-2.88,10.37,12.28,8.23,35.18c-.04.46-.3,1.59.42,1.48,1.39-4.63,4.25-9.14,7.44-12.76.39-.44,1.29-1.59,1.92-1.48-2.41,3.21-4.39,6.82-5.4,10.75s-2.54,16.22,3.27,16.92c2.32.28,5.55-.86,7.86-.69s5.74,1.66,6.6,3.84c-5.69-.76-10.48.68-6.31,6.95,3.41,5.12,8.93,3.21,13.76,4.94l8.2,13.51c.37,1.39-1.01,3.23-2.36,3.44-3.46.53-5.39-8.74-7.12-8.43-1,.18-.28,1-.14,1.41.96,2.78,4.18,5.53,1.99,8.31-2.29,1.31-5.42-7.41-6.56-8.84-.4-.5-.71-1.02-1.46-.87-.77.84,3.8,7.29,3.34,9.04-.32,1.21-1.98,2.07-3.16,1.19-.99-.74-3-6.73-3.57-8.25l-1.28-.29,2.54,7.45-1.14,1.4c-3.19.96-4.28-5.7-5.54-7.9-.45-.78-1.25-.9-1.32-1.01-.1-.15.76-1.77-.3-3.34s-.76-.72-1.75-2.9c-1.2-2.65-2.28-2.19-2.63-2.69-.48-.67.82-3.22-1.86-4.3-2.4-.96-5.02.58-7.49.48C-3.46,46.3-1.79,26.81,11.05,12.9c15.05-16.3,41.66-17.44,57.54-1.75Z"/>
  <g>
    <path class="cls-6" d="M43.29,54.94c2.15.46,5.48,7.51,8.08,8.91,7.19,3.86,13.19-5.3,16.01-10.74l2.04-5.81c.94,4.29.13,9.7-1.25,13.83-.46,1.39-1.92,3.51-2.15,4.65-.11.55.07.86.64.64.87-.35,3.34-2.28,4.25-2.98,2.64-2.05,4.68-4.67,6.76-7.26l2.81-5.48c-2.55,11.28-11.21,22.04-21.66,27.01-1.89.9-8.57,3.7-10.12,2.21l-9.17-15.48c-2.66-3.03-9.3-.27-13.27-4.37-.79-.82-3.22-5.12-1.26-5.12h18.28Z"/>
    <path class="cls-6" d="M11.2,67.69c-1.78.02-5.55.44-5.34-2.34.16-2.11,6.48-3.16,7.7-2.37,1.62,1.05,1.42,3.11-.35,3.96-.5.24-1.57.59-2.01.75,2.07-.03,5.41-1.48,5.57,1.49.19,3.58-7.46,4.15-9.83,2.98-1.45-4.16,1.64-3.39,3.98-4.05.4-.11.25-.41.28-.42Z"/>
    <path class="cls-6" d="M16.3,77.04c-2.3.05-4.88,1.47-6.07-1.41-1.35-3.24,7.66-4.5,8.44-2.01s-.99,2.73-2.37,3.41c2.26-.05,7.67-.37,5.13,3.55-.73,1.13-8.35,2.39-7.6-1.52.37-1.94,1.56-1.31,2.4-1.66.11-.05.05-.35.07-.36Z"/>
  </g>
  <text class="cls-8" transform="translate(26.13 31.57)"><tspan x="0" y="0" xml:space="preserve"> Gr</tspan><tspan class="cls-3" x="23.81" y="0">o</tspan><tspan class="cls-4" x="32.03" y="0">wSnaps</tspan></text>
  <text class="cls-2" transform="translate(37.8 41.28)"><tspan x="0" y="0">Global </tspan><tspan class="cls-7" x="29.6" y="0">V</tspan><tspan x="34.89" y="0">entu</tspan><tspan class="cls-5" x="51.6" y="0">r</tspan><tspan x="55.37" y="0">es</tspan></text>
</svg>